<?xml version="1.0" encoding="utf-8"?>

<!DOCTYPE svg PUBLIC "-//W3C//DTD SVG 1.1//EN" "http://www.w3.org/Graphics/SVG/1.1/DTD/svg11.dtd">
<!-- Uploaded to: SVG Repo, www.svgrepo.com, Generator: SVG Repo Mixer Tools -->
<svg version="1.1" id="_x32_" xmlns="http://www.w3.org/2000/svg" xmlns:xlink="http://www.w3.org/1999/xlink" 
	 width="800px" height="800px" viewBox="0 0 512 512"  xml:space="preserve">
<style type="text/css">
<![CDATA[
	.st0{fill:#000000;}
]]>
</style>
	<link xmlns="http://www.w3.org/1999/xhtml" rel="stylesheet" href="../css/main.css" type="text/css"/>
<g>
	<rect y="477.031" class="st0" width="512" height="8"/>
	<path class="st0" d="M112.688,387.016v60.75h78.625v-79.844C165.797,375.672,139.578,382.141,112.688,387.016z"/>
	<path class="st0" d="M8.688,397.906v49.859h78.625v-56.734C61.594,394.719,35.359,397.031,8.688,397.906z"/>
	<path class="st0" d="M216.438,359.719v88.047h79.125V326.5C270.234,339.109,243.813,350.219,216.438,359.719z"/>
	<path class="st0" d="M320.313,313.5v134.266h79.375V261.547C374.875,280.609,348.344,297.984,320.313,313.5z"/>
	<path class="st0" d="M424.25,241.672v206.094h79.5V158.953C480.391,188.781,453.719,216.469,424.25,241.672z"/>
	<path class="st0" d="M413.078,57.688l27.656,23.172C352.953,190.391,185.391,329.125,0,349.766v22.141
		c183.875-6.5,381.109-132.453,483.547-255.172L512,140.563V26.969L413.078,57.688z"/>
</g>
</svg>